<?xml version="1.0" encoding="UTF-8"?>
<svg xmlns="http://www.w3.org/2000/svg" width="512" height="512" viewBox="0 0 512 512">
  <title>frame_03: left sway with one paw across belly</title>
  <g fill="#000000" fill-rule="evenodd">
    <path d="M 356.97 418.86 L 350.46 425.37 L 350.46 434.06 L 348.29 436.23 L 348.29 442.74 L 346.11 444.91 L 346.11 449.26 L 341.77 455.77 L 339.60 462.29 L 330.91 470.97 L 320.06 470.97 L 317.89 468.80 L 311.37 468.80 L 309.20 466.63 L 304.86 470.97 L 304.86 473.14 L 311.37 479.66 L 313.54 479.66 L 315.71 481.83 L 324.40 481.83 L 326.57 479.66 L 328.74 479.66 L 333.09 475.31 L 335.26 475.31 L 339.60 470.97 L 339.60 468.80 L 343.94 464.46 L 346.11 457.94 L 350.46 451.43 L 350.46 447.09 L 352.63 444.91 L 352.63 438.40 L 354.80 436.23 L 354.80 429.71 L 356.97 427.54 Z M 391.71 384.11 L 402.57 392.80 L 409.09 394.97 L 411.26 397.14 L 415.60 397.14 L 417.77 399.31 L 419.94 399.31 L 419.94 394.97 L 417.77 392.80 L 415.60 392.80 L 409.09 388.46 L 402.57 386.29 L 398.23 381.94 L 393.89 381.94 Z M 174.57 375.43 L 174.57 377.60 L 176.74 379.77 L 176.74 388.46 L 178.91 390.63 L 178.91 397.14 L 183.26 403.66 L 183.26 408.00 L 185.43 410.17 L 185.43 414.51 L 187.60 416.69 L 187.60 421.03 L 189.77 423.20 L 189.77 425.37 L 191.94 427.54 L 194.11 434.06 L 202.80 444.91 L 202.80 449.26 L 194.11 462.29 L 194.11 475.31 L 196.29 477.49 L 218.00 477.49 L 220.17 475.31 L 226.69 473.14 L 233.20 466.63 L 233.20 464.46 L 237.54 457.94 L 237.54 453.60 L 241.89 447.09 L 241.89 442.74 L 237.54 438.40 L 237.54 440.57 L 235.37 442.74 L 235.37 447.09 L 231.03 453.60 L 231.03 457.94 L 226.69 462.29 L 226.69 464.46 L 224.51 466.63 L 222.34 466.63 L 220.17 468.80 L 215.83 468.80 L 213.66 466.63 L 211.49 466.63 L 207.14 470.97 L 200.63 470.97 L 198.46 468.80 L 200.63 462.29 L 209.31 451.43 L 209.31 444.91 L 207.14 442.74 L 207.14 440.57 L 200.63 434.06 L 198.46 427.54 L 191.94 416.69 L 191.94 412.34 L 189.77 410.17 L 189.77 403.66 L 187.60 401.49 L 187.60 397.14 L 183.26 390.63 L 183.26 384.11 Z M 411.26 364.57 L 411.26 366.74 L 415.60 366.74 L 417.77 368.91 L 419.94 368.91 L 419.94 364.57 L 417.77 362.40 L 413.43 362.40 Z M 237.54 336.34 L 237.54 338.51 L 246.23 347.20 L 246.23 349.37 L 257.09 360.23 L 257.09 362.40 L 248.40 373.26 L 248.40 377.60 L 246.23 379.77 L 246.23 386.29 L 244.06 388.46 L 244.06 403.66 L 241.89 405.83 L 241.89 421.03 L 239.71 423.20 L 239.71 434.06 L 244.06 438.40 L 244.06 434.06 L 246.23 431.89 L 246.23 423.20 L 248.40 421.03 L 248.40 405.83 L 250.57 403.66 L 250.57 390.63 L 252.74 388.46 L 252.74 377.60 L 254.91 375.43 L 254.91 371.09 L 257.09 368.91 L 257.09 366.74 L 259.26 364.57 L 261.43 364.57 L 265.77 368.91 L 265.77 371.09 L 267.94 373.26 L 267.94 377.60 L 272.29 381.94 L 272.29 386.29 L 274.46 388.46 L 276.63 394.97 L 280.97 399.31 L 283.14 405.83 L 287.49 410.17 L 287.49 412.34 L 294.00 418.86 L 294.00 421.03 L 304.86 431.89 L 307.03 438.40 L 309.20 440.57 L 309.20 449.26 L 307.03 451.43 L 307.03 455.77 L 304.86 457.94 L 304.86 464.46 L 311.37 457.94 L 311.37 451.43 L 313.54 449.26 L 313.54 440.57 L 311.37 438.40 L 311.37 434.06 L 307.03 429.71 L 307.03 427.54 L 298.34 418.86 L 298.34 416.69 L 291.83 410.17 L 291.83 408.00 L 287.49 403.66 L 285.31 397.14 L 280.97 392.80 L 280.97 390.63 L 278.80 388.46 L 278.80 384.11 L 272.29 373.26 L 272.29 371.09 L 270.11 368.91 L 267.94 362.40 L 257.09 351.54 L 254.91 351.54 L 241.89 338.51 L 239.71 338.51 Z M 183.26 221.26 L 178.91 225.60 L 178.91 240.80 L 181.09 242.97 L 181.09 260.34 L 183.26 262.51 L 183.26 295.09 L 181.09 297.26 L 181.09 305.94 L 178.91 308.11 L 178.91 314.63 L 176.74 316.80 L 176.74 327.66 L 174.57 329.83 L 174.57 368.91 L 181.09 375.43 L 181.09 366.74 L 178.91 364.57 L 178.91 342.86 L 181.09 340.69 L 181.09 325.49 L 183.26 323.31 L 183.26 316.80 L 185.43 314.63 L 185.43 308.11 L 187.60 305.94 L 187.60 295.09 L 189.77 292.91 L 189.77 262.51 L 187.60 260.34 L 187.60 247.31 L 185.43 245.14 L 185.43 229.94 L 183.26 227.77 Z M 335.26 212.57 L 333.09 212.57 L 333.09 214.74 L 326.57 221.26 L 326.57 223.43 L 320.06 229.94 L 317.89 229.94 L 311.37 236.46 L 304.86 238.63 L 300.51 242.97 L 298.34 242.97 L 296.17 245.14 L 291.83 245.14 L 289.66 247.31 L 283.14 247.31 L 280.97 249.49 L 272.29 249.49 L 270.11 251.66 L 246.23 251.66 L 244.06 249.49 L 237.54 249.49 L 235.37 247.31 L 231.03 247.31 L 226.69 242.97 L 226.69 240.80 L 224.51 238.63 L 226.69 236.46 L 233.20 236.46 L 235.37 238.63 L 237.54 238.63 L 237.54 234.29 L 235.37 232.11 L 235.37 229.94 L 237.54 227.77 L 237.54 225.60 L 241.89 221.26 L 244.06 221.26 L 250.57 216.91 L 254.91 216.91 L 257.09 214.74 L 261.43 214.74 L 272.29 208.23 L 274.46 208.23 L 278.80 203.89 L 280.97 203.89 L 291.83 193.03 L 291.83 190.86 L 296.17 186.51 L 296.17 182.17 L 298.34 180.00 L 298.34 166.97 L 296.17 166.97 L 296.17 169.14 L 294.00 171.31 L 294.00 175.66 L 291.83 177.83 L 291.83 182.17 L 287.49 186.51 L 287.49 188.69 L 274.46 201.71 L 272.29 201.71 L 270.11 203.89 L 267.94 203.89 L 261.43 208.23 L 259.26 208.23 L 257.09 210.40 L 252.74 210.40 L 250.57 212.57 L 244.06 214.74 L 233.20 221.26 L 228.86 221.26 L 224.51 225.60 L 222.34 225.60 L 218.00 232.11 L 218.00 240.80 L 220.17 242.97 L 220.17 245.14 L 224.51 249.49 L 226.69 249.49 L 233.20 253.83 L 239.71 253.83 L 241.89 256.00 L 274.46 256.00 L 276.63 253.83 L 285.31 253.83 L 287.49 251.66 L 291.83 251.66 L 294.00 249.49 L 298.34 249.49 L 300.51 247.31 L 302.69 247.31 L 304.86 245.14 L 311.37 242.97 L 317.89 236.46 L 320.06 236.46 L 330.91 225.60 L 333.09 219.09 L 335.26 216.91 Z M 272.29 73.60 L 267.94 77.94 L 267.94 80.11 L 280.97 93.14 L 283.14 93.14 L 280.97 90.97 L 278.80 90.97 L 267.94 80.11 L 267.94 77.94 L 270.11 75.77 L 276.63 75.77 L 283.14 82.29 L 278.80 77.94 L 278.80 75.77 L 280.97 73.60 L 283.14 73.60 Z M 333.09 71.43 L 326.57 77.94 L 326.57 90.97 L 324.40 93.14 L 324.40 95.31 L 320.06 99.66 L 320.06 101.83 L 309.20 112.69 L 309.20 114.86 L 311.37 114.86 L 322.23 125.71 L 324.40 132.23 L 328.74 136.57 L 328.74 138.74 L 330.91 140.91 L 330.91 143.09 L 337.43 149.60 L 337.43 151.77 L 339.60 153.94 L 341.77 153.94 L 346.11 158.29 L 346.11 160.46 L 343.94 162.63 L 339.60 158.29 L 339.60 160.46 L 341.77 162.63 L 341.77 166.97 L 346.11 173.49 L 346.11 177.83 L 350.46 184.34 L 350.46 188.69 L 352.63 190.86 L 352.63 195.20 L 354.80 197.37 L 354.80 203.89 L 356.97 206.06 L 356.97 212.57 L 359.14 214.74 L 359.14 221.26 L 361.31 223.43 L 361.31 229.94 L 363.49 232.11 L 363.49 247.31 L 365.66 249.49 L 365.66 292.91 L 363.49 295.09 L 363.49 312.46 L 361.31 314.63 L 361.31 323.31 L 359.14 325.49 L 359.14 334.17 L 356.97 336.34 L 356.97 342.86 L 354.80 345.03 L 354.80 353.71 L 352.63 355.89 L 352.63 377.60 L 350.46 379.77 L 350.46 418.86 L 356.97 412.34 L 356.97 364.57 L 359.14 362.40 L 359.14 360.23 L 361.31 358.06 L 363.49 358.06 L 387.37 381.94 L 391.71 377.60 L 367.83 353.71 L 367.83 351.54 L 363.49 347.20 L 361.31 340.69 L 365.66 336.34 L 367.83 338.51 L 370.00 338.51 L 380.86 349.37 L 383.03 349.37 L 387.37 353.71 L 389.54 353.71 L 393.89 358.06 L 400.40 360.23 L 402.57 362.40 L 406.91 362.40 L 409.09 360.23 L 406.91 358.06 L 404.74 358.06 L 400.40 353.71 L 393.89 351.54 L 389.54 347.20 L 387.37 347.20 L 380.86 340.69 L 378.69 340.69 L 367.83 329.83 L 367.83 327.66 L 365.66 325.49 L 365.66 321.14 L 367.83 318.97 L 367.83 305.94 L 370.00 303.77 L 370.00 279.89 L 372.17 277.71 L 372.17 262.51 L 370.00 260.34 L 370.00 238.63 L 367.83 236.46 L 367.83 225.60 L 365.66 223.43 L 365.66 216.91 L 363.49 214.74 L 363.49 208.23 L 361.31 206.06 L 361.31 197.37 L 359.14 195.20 L 359.14 190.86 L 356.97 188.69 L 356.97 184.34 L 354.80 182.17 L 354.80 177.83 L 352.63 175.66 L 350.46 169.14 L 343.94 162.63 L 346.11 160.46 L 346.11 158.29 L 341.77 151.77 L 341.77 149.60 L 337.43 143.09 L 337.43 140.91 L 333.09 136.57 L 330.91 130.06 L 326.57 125.71 L 324.40 119.20 L 320.06 114.86 L 320.06 112.69 L 317.89 110.51 L 324.40 104.00 L 324.40 101.83 L 328.74 97.49 L 328.74 95.31 L 330.91 93.14 L 330.91 88.80 L 333.09 86.63 Z M 215.83 64.91 L 215.83 67.09 L 222.34 73.60 L 226.69 73.60 L 228.86 71.43 L 231.03 73.60 L 235.37 73.60 L 237.54 75.77 L 252.74 75.77 L 250.57 73.60 L 239.71 73.60 L 233.20 69.26 L 233.20 67.09 L 239.71 60.57 L 239.71 58.40 L 237.54 56.23 L 235.37 56.23 L 235.37 58.40 L 233.20 60.57 L 233.20 64.91 L 226.69 71.43 L 222.34 71.43 L 218.00 67.09 L 218.00 64.91 Z M 274.46 56.23 L 272.29 54.06 L 267.94 54.06 L 263.60 58.40 L 263.60 60.57 L 265.77 62.74 L 270.11 62.74 Z M 198.46 41.03 L 204.97 41.03 L 209.31 45.37 L 207.14 47.54 L 207.14 49.71 L 202.80 54.06 L 213.66 54.06 L 215.83 51.89 L 218.00 51.89 L 218.00 49.71 L 211.49 43.20 L 209.31 43.20 L 202.80 38.86 L 200.63 38.86 Z M 235.37 34.51 L 228.86 34.51 L 226.69 36.69 L 226.69 38.86 L 231.03 43.20 L 235.37 38.86 Z M 333.09 30.17 L 328.74 30.17 L 322.23 34.51 L 322.23 36.69 L 324.40 38.86 L 324.40 43.20 L 326.57 43.20 L 326.57 34.51 Z M 354.80 28.00 L 350.46 28.00 L 346.11 32.34 L 346.11 34.51 L 337.43 43.20 L 337.43 45.37 L 330.91 51.89 L 328.74 51.89 L 328.74 54.06 L 326.57 56.23 L 326.57 62.74 L 328.74 64.91 L 328.74 69.26 L 333.09 64.91 L 333.09 54.06 L 339.60 47.54 L 341.77 47.54 L 341.77 45.37 L 352.63 34.51 Z M 98.57 28.00 L 94.23 32.34 L 94.23 34.51 L 92.06 36.69 L 92.06 43.20 L 89.89 45.37 L 89.89 54.06 L 92.06 56.23 L 92.06 62.74 L 94.23 64.91 L 94.23 71.43 L 96.40 73.60 L 96.40 77.94 L 98.57 80.11 L 98.57 84.46 L 100.74 86.63 L 100.74 88.80 L 107.26 99.66 L 107.26 101.83 L 115.94 112.69 L 115.94 114.86 L 155.03 153.94 L 155.03 156.11 L 163.71 166.97 L 165.89 173.49 L 168.06 175.66 L 168.06 180.00 L 172.40 186.51 L 172.40 193.03 L 174.57 195.20 L 174.57 203.89 L 176.74 206.06 L 176.74 221.26 L 183.26 214.74 L 183.26 212.57 L 181.09 210.40 L 181.09 197.37 L 178.91 195.20 L 178.91 186.51 L 176.74 184.34 L 176.74 180.00 L 172.40 173.49 L 172.40 169.14 L 163.71 158.29 L 163.71 156.11 L 155.03 147.43 L 155.03 145.26 L 124.63 114.86 L 124.63 112.69 L 118.11 106.17 L 118.11 104.00 L 111.60 97.49 L 111.60 95.31 L 109.43 93.14 L 109.43 88.80 L 105.09 84.46 L 105.09 80.11 L 102.91 77.94 L 102.91 73.60 L 100.74 71.43 L 100.74 67.09 L 98.57 64.91 L 98.57 54.06 L 96.40 51.89 L 96.40 45.37 L 98.57 43.20 L 98.57 38.86 L 100.74 36.69 L 100.74 34.51 L 105.09 30.17 L 109.43 30.17 L 111.60 28.00 L 115.94 32.34 L 115.94 36.69 L 111.60 43.20 L 111.60 47.54 L 113.77 47.54 L 118.11 43.20 L 120.29 43.20 L 122.46 45.37 L 122.46 49.71 L 124.63 51.89 L 126.80 58.40 L 131.14 62.74 L 131.14 64.91 L 139.83 73.60 L 142.00 73.60 L 146.34 77.94 L 152.86 80.11 L 155.03 82.29 L 159.37 82.29 L 161.54 84.46 L 165.89 84.46 L 168.06 86.63 L 172.40 86.63 L 174.57 88.80 L 176.74 88.80 L 183.26 95.31 L 183.26 97.49 L 187.60 101.83 L 194.11 104.00 L 191.94 97.49 L 183.26 88.80 L 183.26 86.63 L 181.09 84.46 L 181.09 77.94 L 178.91 75.77 L 178.91 54.06 L 181.09 51.89 L 181.09 45.37 L 185.43 38.86 L 185.43 36.69 L 189.77 32.34 L 189.77 30.17 L 191.94 28.00 L 185.43 28.00 L 185.43 30.17 L 181.09 34.51 L 181.09 36.69 L 176.74 41.03 L 176.74 47.54 L 174.57 49.71 L 174.57 80.11 L 172.40 82.29 L 152.86 75.77 L 148.51 71.43 L 146.34 71.43 L 133.31 58.40 L 133.31 56.23 L 128.97 51.89 L 128.97 49.71 L 126.80 47.54 L 126.80 43.20 L 122.46 36.69 L 122.46 32.34 L 120.29 30.17 L 120.29 28.00 Z"/>
  </g>
</svg>