<?xml version="1.0" encoding="UTF-8"?>
<svg xmlns="http://www.w3.org/2000/svg" width="512" height="512" viewBox="0 0 512 512">
  <title>frame_06: right sway, both paws forward</title>
  <g fill="#000000" fill-rule="evenodd">
    <path d="M 232.21 470.12 L 232.21 472.10 L 234.19 472.10 L 238.16 478.05 L 242.12 478.05 L 244.10 480.03 L 252.03 480.03 L 254.02 482.02 L 265.91 482.02 L 267.90 480.03 L 273.84 480.03 L 275.83 478.05 L 275.83 466.16 L 267.90 458.23 L 265.91 458.23 L 261.95 454.26 L 259.97 454.26 L 254.02 450.30 L 250.05 450.30 L 248.07 452.28 L 257.98 458.23 L 259.97 458.23 L 269.88 468.14 L 269.88 472.10 L 265.91 476.07 L 248.07 476.07 L 246.09 474.09 L 238.16 474.09 Z M 184.63 432.45 L 184.63 436.42 L 186.61 438.40 L 186.61 444.35 L 188.59 446.33 L 188.59 452.28 L 192.56 456.24 L 192.56 458.23 L 194.54 458.23 L 202.47 464.17 L 206.43 464.17 L 208.42 466.16 L 214.37 468.14 L 218.33 464.17 L 216.35 464.17 L 214.37 462.19 L 210.40 462.19 L 208.42 460.21 L 198.50 456.24 L 192.56 448.31 L 192.56 442.37 L 190.57 440.38 L 190.57 438.40 Z M 325.39 374.96 L 317.46 382.89 L 317.46 386.85 L 313.50 392.80 L 313.50 396.77 L 311.51 398.75 L 311.51 402.71 L 309.53 404.70 L 309.53 410.64 L 311.51 410.64 L 313.50 412.63 L 325.39 412.63 L 327.37 414.61 L 331.34 414.61 L 333.32 416.59 L 335.30 416.59 L 343.23 424.52 L 339.27 428.49 L 335.30 428.49 L 333.32 430.47 L 331.34 430.47 L 329.36 428.49 L 329.36 426.50 L 327.37 426.50 L 327.37 428.49 L 323.41 432.45 L 313.50 432.45 L 311.51 430.47 L 299.62 430.47 L 297.63 428.49 L 287.72 428.49 L 285.74 426.50 L 277.81 426.50 L 275.83 424.52 L 273.84 426.50 L 273.84 428.49 L 275.83 428.49 L 277.81 430.47 L 283.76 430.47 L 285.74 432.45 L 293.67 432.45 L 295.65 434.43 L 307.55 434.43 L 309.53 436.42 L 337.29 436.42 L 339.27 434.43 L 343.23 434.43 L 347.20 430.47 L 347.20 422.54 L 339.27 414.61 L 337.29 414.61 L 331.34 410.64 L 323.41 410.64 L 321.43 408.66 L 317.46 408.66 L 315.48 406.68 L 315.48 402.71 L 317.46 400.73 L 317.46 396.77 L 321.43 390.82 L 321.43 386.85 L 323.41 384.87 L 323.41 378.92 L 325.39 376.94 Z M 325.39 224.28 L 325.39 269.88 L 323.41 271.86 L 323.41 283.76 L 321.43 285.74 L 321.43 293.67 L 319.44 295.65 L 319.44 303.58 L 317.46 305.57 L 317.46 311.51 L 315.48 313.50 L 313.50 323.41 L 309.53 329.36 L 309.53 333.32 L 303.58 343.23 L 299.62 353.15 L 287.72 367.03 L 285.74 367.03 L 283.76 365.04 L 281.77 359.10 L 275.83 351.17 L 275.83 349.18 L 269.88 345.22 L 269.88 349.18 L 273.84 353.15 L 273.84 355.13 L 277.81 361.08 L 277.81 388.83 L 275.83 390.82 L 275.83 394.78 L 273.84 396.77 L 273.84 398.75 L 269.88 404.70 L 269.88 408.66 L 259.97 420.56 L 259.97 422.54 L 250.05 432.45 L 250.05 434.43 L 244.10 440.38 L 244.10 442.37 L 240.14 446.33 L 240.14 450.30 L 244.10 450.30 L 246.09 448.31 L 246.09 446.33 L 252.03 440.38 L 252.03 438.40 L 265.91 422.54 L 267.90 422.54 L 269.88 424.52 L 273.84 420.56 L 273.84 410.64 L 275.83 408.66 L 277.81 398.75 L 281.77 392.80 L 281.77 386.85 L 283.76 384.87 L 283.76 380.90 L 285.74 378.92 L 285.74 376.94 L 291.69 370.99 L 291.69 369.01 L 299.62 361.08 L 299.62 359.10 L 303.58 355.13 L 303.58 353.15 L 307.55 349.18 L 313.50 335.30 L 317.46 331.34 L 319.44 333.32 L 319.44 335.30 L 321.43 337.29 L 321.43 341.25 L 323.41 343.23 L 323.41 357.11 L 321.43 359.10 L 321.43 369.01 L 319.44 370.99 L 319.44 374.96 L 327.37 367.03 L 327.37 359.10 L 329.36 357.11 L 329.36 345.22 L 327.37 343.23 L 327.37 337.29 L 325.39 335.30 L 325.39 331.34 L 319.44 321.43 L 321.43 311.51 L 323.41 309.53 L 323.41 301.60 L 325.39 299.62 L 325.39 293.67 L 327.37 291.69 L 327.37 281.77 L 329.36 279.79 L 329.36 263.93 L 331.34 261.95 L 331.34 236.17 L 329.36 234.19 L 329.36 228.24 Z M 313.50 212.38 L 309.53 208.42 L 303.58 208.42 L 301.60 210.40 L 267.90 210.40 L 271.86 214.37 L 305.57 214.37 L 307.55 212.38 Z M 194.54 168.77 L 192.56 168.77 L 186.61 176.70 L 186.61 188.59 L 184.63 190.57 L 184.63 200.49 L 182.64 202.47 L 182.64 212.38 L 180.66 214.37 L 180.66 222.30 L 178.68 224.28 L 178.68 232.21 L 176.70 234.19 L 176.70 238.16 L 174.71 240.14 L 174.71 246.09 L 172.73 248.07 L 172.73 254.02 L 170.75 256.00 L 170.75 261.95 L 168.77 263.93 L 168.77 269.88 L 166.78 271.86 L 166.78 277.81 L 164.80 279.79 L 164.80 285.74 L 162.82 287.72 L 162.82 295.65 L 160.83 297.63 L 160.83 303.58 L 158.85 305.57 L 158.85 313.50 L 156.87 315.48 L 156.87 323.41 L 154.89 325.39 L 154.89 329.36 L 150.92 333.32 L 148.94 331.34 L 144.97 331.34 L 129.11 319.44 L 129.11 325.39 L 131.10 327.37 L 133.08 327.37 L 141.01 333.32 L 150.92 335.30 L 154.89 341.25 L 154.89 347.20 L 150.92 351.17 L 144.97 351.17 L 142.99 349.18 L 137.04 349.18 L 135.06 347.20 L 131.10 347.20 L 129.11 345.22 L 129.11 351.17 L 135.06 351.17 L 137.04 353.15 L 144.97 353.15 L 146.96 355.13 L 152.90 355.13 L 156.87 359.10 L 156.87 365.04 L 158.85 367.03 L 158.85 370.99 L 160.83 372.97 L 160.83 376.94 L 162.82 378.92 L 162.82 382.89 L 172.73 400.73 L 172.73 404.70 L 178.68 414.61 L 178.68 418.57 L 180.66 420.56 L 180.66 422.54 L 188.59 430.47 L 188.59 428.49 L 186.61 426.50 L 186.61 420.56 L 184.63 418.57 L 184.63 414.61 L 176.70 400.73 L 176.70 396.77 L 172.73 392.80 L 172.73 390.82 L 168.77 384.87 L 166.78 374.96 L 162.82 369.01 L 162.82 365.04 L 160.83 363.06 L 160.83 353.15 L 158.85 351.17 L 158.85 333.32 L 160.83 331.34 L 160.83 319.44 L 162.82 317.46 L 162.82 309.53 L 164.80 307.55 L 164.80 301.60 L 166.78 299.62 L 166.78 291.69 L 168.77 289.70 L 168.77 283.76 L 170.75 281.77 L 170.75 275.83 L 172.73 273.84 L 172.73 267.90 L 174.71 265.91 L 174.71 259.97 L 176.70 257.98 L 176.70 252.03 L 178.68 250.05 L 178.68 244.10 L 180.66 242.12 L 180.66 236.17 L 182.64 234.19 L 182.64 228.24 L 184.63 226.26 L 184.63 220.31 L 186.61 218.33 L 186.61 208.42 L 188.59 206.43 L 188.59 196.52 L 190.57 194.54 L 190.57 184.63 L 192.56 182.64 L 192.56 170.75 Z M 259.97 164.80 L 261.95 166.78 L 263.93 166.78 L 265.91 168.77 L 269.88 168.77 L 271.86 170.75 L 267.90 166.78 L 265.91 166.78 L 263.93 164.80 Z M 309.53 115.23 L 309.53 117.22 L 307.55 119.20 L 307.55 127.13 L 313.50 131.10 L 317.46 131.10 L 319.44 129.11 L 321.43 129.11 L 311.51 129.11 L 309.53 127.13 L 309.53 121.18 L 313.50 117.22 L 313.50 115.23 Z M 331.34 107.30 L 327.37 107.30 L 325.39 109.29 L 325.39 111.27 L 329.36 111.27 L 331.34 109.29 Z M 208.42 107.30 L 200.49 121.18 L 200.49 125.15 L 196.52 131.10 L 196.52 137.04 L 194.54 139.03 L 194.54 142.99 L 192.56 144.97 L 192.56 150.92 L 190.57 152.90 L 190.57 162.82 L 188.59 164.80 L 188.59 166.78 L 194.54 160.83 L 194.54 156.87 L 196.52 154.89 L 196.52 148.94 L 198.50 146.96 L 198.50 142.99 L 200.49 141.01 L 200.49 135.06 L 202.47 133.08 L 202.47 129.11 L 210.40 115.23 L 210.40 109.29 Z M 257.98 109.29 L 265.91 109.29 L 267.90 107.30 L 275.83 107.30 L 281.77 111.27 L 271.86 105.32 L 269.88 105.32 L 265.91 109.29 Z M 297.63 99.37 L 293.67 99.37 L 293.67 105.32 L 295.65 105.32 L 297.63 103.34 Z M 305.57 55.76 L 303.58 57.74 L 303.58 59.72 L 309.53 59.72 L 311.51 61.70 L 317.46 63.69 L 321.43 67.65 L 331.34 71.62 L 333.32 73.60 L 339.27 73.60 L 341.25 71.62 L 359.10 71.62 L 361.08 73.60 L 361.08 77.57 L 351.17 87.48 L 349.18 87.48 L 345.22 91.44 L 351.17 101.36 L 351.17 117.22 L 347.20 121.18 L 337.29 121.18 L 331.34 125.15 L 333.32 125.15 L 335.30 127.13 L 341.25 127.13 L 343.23 125.15 L 345.22 125.15 L 349.18 129.11 L 345.22 135.06 L 343.23 141.01 L 333.32 150.92 L 319.44 156.87 L 315.48 160.83 L 313.50 166.78 L 311.51 168.77 L 277.81 168.77 L 275.83 166.78 L 273.84 166.78 L 279.79 172.73 L 293.67 172.73 L 295.65 174.71 L 309.53 174.71 L 311.51 172.73 L 323.41 172.73 L 325.39 170.75 L 329.36 170.75 L 331.34 168.77 L 335.30 168.77 L 337.29 166.78 L 341.25 166.78 L 355.13 158.85 L 361.08 166.78 L 363.06 160.83 L 367.03 156.87 L 370.99 156.87 L 372.97 158.85 L 372.97 160.83 L 370.99 162.82 L 369.01 162.82 L 367.03 164.80 L 367.03 166.78 L 370.99 166.78 L 372.97 168.77 L 372.97 170.75 L 363.06 180.66 L 361.08 180.66 L 355.13 186.61 L 353.15 186.61 L 343.23 194.54 L 341.25 194.54 L 339.27 196.52 L 325.39 202.47 L 323.41 204.45 L 313.50 206.43 L 331.34 224.28 L 333.32 224.28 L 335.30 222.30 L 337.29 222.30 L 343.23 216.35 L 345.22 216.35 L 351.17 208.42 L 353.15 208.42 L 355.13 206.43 L 357.11 208.42 L 369.01 208.42 L 370.99 206.43 L 372.97 206.43 L 378.92 200.49 L 378.92 198.50 L 380.90 196.52 L 380.90 190.57 L 378.92 188.59 L 378.92 186.61 L 370.99 180.66 L 370.99 178.68 L 376.94 172.73 L 376.94 170.75 L 378.92 168.77 L 378.92 154.89 L 376.94 152.90 L 374.96 152.90 L 372.97 150.92 L 365.04 150.92 L 363.06 152.90 L 357.11 152.90 L 351.17 156.87 L 347.20 156.87 L 329.36 166.78 L 321.43 166.78 L 319.44 164.80 L 327.37 156.87 L 331.34 156.87 L 333.32 154.89 L 335.30 154.89 L 341.25 148.94 L 343.23 148.94 L 349.18 141.01 L 351.17 135.06 L 355.13 131.10 L 365.04 133.08 L 361.08 133.08 L 357.11 129.11 L 357.11 127.13 L 365.04 121.18 L 359.10 121.18 L 357.11 119.20 L 357.11 105.32 L 355.13 103.34 L 355.13 97.39 L 353.15 95.41 L 353.15 93.43 L 365.04 81.53 L 365.04 79.55 L 372.97 71.62 L 370.99 69.63 L 363.06 69.63 L 361.08 67.65 L 331.34 67.65 L 327.37 63.69 L 325.39 63.69 L 311.51 55.76 Z M 374.96 188.59 L 374.96 196.52 L 372.97 198.50 L 363.06 198.50 L 357.11 202.47 L 351.17 202.47 L 339.27 216.35 L 331.34 222.30 L 325.39 216.35 L 325.39 212.38 L 323.41 210.40 L 327.37 206.43 L 337.29 202.47 L 345.22 196.52 L 347.20 196.52 L 351.17 192.56 L 357.11 190.57 L 367.03 182.64 L 369.01 182.64 Z M 271.86 47.83 L 269.88 47.83 L 269.88 49.81 L 271.86 51.79 L 271.86 57.74 L 267.90 61.70 L 265.91 61.70 L 263.93 63.69 L 259.97 63.69 L 259.97 65.67 L 265.91 65.67 L 275.83 59.72 L 275.83 55.76 L 271.86 49.81 Z M 299.62 53.77 L 289.70 53.77 L 287.72 51.79 L 281.77 37.91 L 275.83 31.97 L 269.88 29.98 L 267.90 28.00 L 263.93 28.00 L 257.98 35.93 L 252.03 49.81 L 248.07 53.77 L 246.09 59.72 L 242.12 63.69 L 242.12 65.67 L 238.16 69.63 L 238.16 71.62 L 230.23 79.55 L 230.23 81.53 L 214.37 97.39 L 214.37 99.37 L 210.40 103.34 L 214.37 107.30 L 216.35 105.32 L 216.35 103.34 L 222.30 97.39 L 222.30 95.41 L 238.16 79.55 L 238.16 77.57 L 248.07 65.67 L 248.07 63.69 L 254.02 53.77 L 257.98 43.86 L 265.91 33.95 L 271.86 33.95 L 275.83 37.91 L 275.83 39.90 L 281.77 47.83 L 285.74 57.74 L 297.63 57.74 L 299.62 55.76 Z"/>
  </g>
</svg>