<?xml version="1.0" encoding="UTF-8"?>
<svg xmlns="http://www.w3.org/2000/svg" width="512" height="512" viewBox="0 0 512 512">
  <title>Dancing cat keyframe 10</title>
  <g fill="#000000" fill-rule="evenodd">
    <path d="M 234.00 164.00 L 235.00 167.00 L 239.00 169.00 L 260.00 169.00 L 261.00 170.00 L 265.00 169.00 L 267.00 165.00 L 265.00 161.00 L 260.00 159.00 L 239.00 159.00 L 236.00 160.00 Z M 279.00 145.00 L 275.00 147.00 L 273.00 152.00 L 274.00 157.00 L 278.00 159.00 L 282.00 157.00 L 284.00 151.00 L 283.00 147.00 Z M 262.00 73.00 L 259.00 74.00 L 257.00 76.00 L 256.00 79.00 L 256.00 88.00 L 253.00 92.00 L 247.00 90.00 L 246.00 91.00 L 239.00 91.00 L 238.00 92.00 L 231.00 93.00 L 222.00 100.00 L 217.00 101.00 L 201.00 119.00 L 199.00 125.00 L 199.00 128.00 L 196.00 135.00 L 194.00 154.00 L 192.00 158.00 L 190.00 158.00 L 183.00 162.00 L 181.00 162.00 L 177.00 165.00 L 169.00 167.00 L 162.00 171.00 L 158.00 175.00 L 154.00 176.00 L 148.00 182.00 L 147.00 182.00 L 132.00 198.00 L 131.00 202.00 L 127.00 206.00 L 124.00 213.00 L 121.00 217.00 L 118.00 226.00 L 117.00 235.00 L 115.00 239.00 L 115.00 262.00 L 119.00 273.00 L 123.00 277.00 L 130.00 279.00 L 132.00 281.00 L 132.00 283.00 L 136.00 285.00 L 139.00 284.00 L 143.00 278.00 L 151.00 278.00 L 152.00 279.00 L 161.00 311.00 L 164.00 315.00 L 164.00 317.00 L 166.00 319.00 L 168.00 326.00 L 171.00 329.00 L 171.00 331.00 L 175.00 335.00 L 175.00 337.00 L 183.00 346.00 L 183.00 348.00 L 194.00 360.00 L 197.00 366.00 L 200.00 369.00 L 204.00 370.00 L 206.00 373.00 L 209.00 374.00 L 212.00 373.00 L 217.00 367.00 L 218.00 363.00 L 223.00 355.00 L 224.00 352.00 L 222.00 347.00 L 218.00 345.00 L 215.00 346.00 L 213.00 352.00 L 210.00 357.00 L 210.00 359.00 L 208.00 361.00 L 205.00 360.00 L 202.00 354.00 L 191.00 342.00 L 191.00 340.00 L 183.00 331.00 L 182.00 327.00 L 176.00 320.00 L 176.00 318.00 L 174.00 315.00 L 174.00 313.00 L 172.00 311.00 L 172.00 309.00 L 170.00 307.00 L 170.00 304.00 L 166.00 295.00 L 166.00 292.00 L 162.00 280.00 L 161.00 272.00 L 158.00 269.00 L 159.00 267.00 L 159.00 257.00 L 160.00 256.00 L 160.00 242.00 L 161.00 241.00 L 161.00 237.00 L 163.00 231.00 L 165.00 228.00 L 168.00 219.00 L 167.00 215.00 L 163.00 213.00 L 160.00 214.00 L 155.00 224.00 L 152.00 233.00 L 152.00 236.00 L 151.00 237.00 L 151.00 241.00 L 150.00 242.00 L 150.00 256.00 L 149.00 257.00 L 149.00 267.00 L 148.00 268.00 L 146.00 268.00 L 145.00 265.00 L 141.00 263.00 L 138.00 264.00 L 134.00 270.00 L 133.00 269.00 L 129.00 269.00 L 127.00 267.00 L 125.00 262.00 L 125.00 239.00 L 127.00 235.00 L 127.00 231.00 L 128.00 230.00 L 129.00 223.00 L 132.00 219.00 L 135.00 212.00 L 139.00 208.00 L 140.00 204.00 L 148.00 196.00 L 148.00 195.00 L 160.00 184.00 L 164.00 183.00 L 168.00 179.00 L 175.00 175.00 L 183.00 173.00 L 187.00 170.00 L 189.00 170.00 L 196.00 166.00 L 198.00 166.00 L 201.00 163.00 L 204.00 154.00 L 206.00 135.00 L 209.00 128.00 L 209.00 125.00 L 222.00 110.00 L 228.00 108.00 L 234.00 103.00 L 239.00 101.00 L 249.00 101.00 L 250.00 102.00 L 254.00 102.00 L 259.00 100.00 L 262.00 104.00 L 263.00 110.00 L 267.00 112.00 L 271.00 110.00 L 272.00 107.00 L 271.00 99.00 L 274.00 97.00 L 281.00 97.00 L 282.00 96.00 L 283.00 97.00 L 292.00 97.00 L 293.00 98.00 L 307.00 98.00 L 312.00 100.00 L 305.00 112.00 L 304.00 120.00 L 303.00 121.00 L 304.00 123.00 L 304.00 131.00 L 306.00 135.00 L 306.00 144.00 L 307.00 147.00 L 306.00 148.00 L 304.00 147.00 L 301.00 148.00 L 299.00 152.00 L 300.00 155.00 L 302.00 157.00 L 307.00 158.00 L 309.00 160.00 L 309.00 173.00 L 305.00 179.00 L 300.00 179.00 L 298.00 178.00 L 296.00 172.00 L 292.00 170.00 L 289.00 171.00 L 287.00 175.00 L 284.00 174.00 L 281.00 175.00 L 279.00 179.00 L 280.00 182.00 L 282.00 184.00 L 299.00 188.00 L 300.00 189.00 L 299.00 192.00 L 295.00 195.00 L 292.00 199.00 L 287.00 199.00 L 281.00 201.00 L 269.00 201.00 L 266.00 202.00 L 264.00 206.00 L 265.00 209.00 L 269.00 211.00 L 281.00 211.00 L 287.00 209.00 L 292.00 209.00 L 294.00 213.00 L 300.00 219.00 L 306.00 220.00 L 310.00 222.00 L 313.00 222.00 L 316.00 224.00 L 323.00 225.00 L 327.00 227.00 L 335.00 227.00 L 336.00 228.00 L 348.00 229.00 L 354.00 231.00 L 357.00 234.00 L 357.00 239.00 L 355.00 242.00 L 353.00 242.00 L 350.00 245.00 L 348.00 245.00 L 340.00 249.00 L 328.00 250.00 L 327.00 251.00 L 320.00 251.00 L 319.00 252.00 L 302.00 252.00 L 297.00 250.00 L 284.00 250.00 L 281.00 251.00 L 279.00 253.00 L 278.00 256.00 L 278.00 264.00 L 279.00 265.00 L 280.00 271.00 L 283.00 274.00 L 284.00 277.00 L 288.00 282.00 L 289.00 286.00 L 300.00 297.00 L 302.00 302.00 L 307.00 306.00 L 307.00 308.00 L 309.00 310.00 L 310.00 314.00 L 314.00 319.00 L 315.00 324.00 L 317.00 326.00 L 319.00 332.00 L 319.00 349.00 L 315.00 360.00 L 315.00 367.00 L 312.00 368.00 L 299.00 379.00 L 296.00 380.00 L 277.00 394.00 L 275.00 399.00 L 275.00 402.00 L 272.00 404.00 L 269.00 408.00 L 267.00 424.00 L 266.00 425.00 L 266.00 431.00 L 263.00 438.00 L 260.00 441.00 L 255.00 443.00 L 251.00 447.00 L 249.00 447.00 L 238.00 455.00 L 231.00 457.00 L 229.00 459.00 L 217.00 465.00 L 214.00 465.00 L 208.00 468.00 L 194.00 469.00 L 191.00 467.00 L 193.00 462.00 L 200.00 455.00 L 212.00 449.00 L 216.00 445.00 L 217.00 442.00 L 217.00 436.00 L 213.00 424.00 L 213.00 408.00 L 212.00 407.00 L 212.00 396.00 L 214.00 390.00 L 212.00 386.00 L 209.00 385.00 L 206.00 386.00 L 204.00 388.00 L 203.00 395.00 L 202.00 396.00 L 202.00 407.00 L 203.00 408.00 L 203.00 424.00 L 205.00 428.00 L 205.00 431.00 L 207.00 436.00 L 207.00 440.00 L 194.00 447.00 L 185.00 456.00 L 181.00 467.00 L 183.00 474.00 L 186.00 477.00 L 193.00 478.00 L 194.00 479.00 L 208.00 478.00 L 215.00 475.00 L 221.00 474.00 L 236.00 466.00 L 241.00 465.00 L 255.00 455.00 L 257.00 455.00 L 261.00 451.00 L 266.00 449.00 L 271.00 444.00 L 274.00 438.00 L 275.00 432.00 L 276.00 431.00 L 276.00 425.00 L 277.00 424.00 L 278.00 413.00 L 279.00 412.00 L 284.00 414.00 L 288.00 419.00 L 287.00 425.00 L 282.00 438.00 L 283.00 446.00 L 286.00 449.00 L 291.00 451.00 L 300.00 450.00 L 308.00 447.00 L 313.00 440.00 L 314.00 435.00 L 319.00 427.00 L 321.00 419.00 L 329.00 404.00 L 329.00 402.00 L 335.00 390.00 L 335.00 386.00 L 336.00 384.00 L 335.00 383.00 L 334.00 377.00 L 325.00 368.00 L 325.00 360.00 L 327.00 354.00 L 328.00 353.00 L 348.00 353.00 L 354.00 351.00 L 359.00 348.00 L 361.00 348.00 L 367.00 343.00 L 371.00 342.00 L 380.00 333.00 L 382.00 333.00 L 384.00 331.00 L 386.00 325.00 L 390.00 322.00 L 394.00 312.00 L 394.00 304.00 L 395.00 302.00 L 394.00 301.00 L 393.00 294.00 L 389.00 290.00 L 383.00 289.00 L 377.00 291.00 L 373.00 295.00 L 369.00 297.00 L 355.00 314.00 L 347.00 322.00 L 343.00 324.00 L 339.00 324.00 L 333.00 326.00 L 327.00 326.00 L 323.00 317.00 L 323.00 315.00 L 321.00 311.00 L 318.00 308.00 L 318.00 306.00 L 315.00 302.00 L 315.00 300.00 L 310.00 296.00 L 308.00 290.00 L 297.00 280.00 L 296.00 276.00 L 288.00 264.00 L 288.00 261.00 L 289.00 260.00 L 297.00 260.00 L 302.00 262.00 L 319.00 262.00 L 320.00 261.00 L 327.00 261.00 L 328.00 260.00 L 340.00 259.00 L 352.00 255.00 L 354.00 253.00 L 356.00 253.00 L 359.00 250.00 L 361.00 250.00 L 365.00 246.00 L 366.00 240.00 L 367.00 239.00 L 367.00 233.00 L 365.00 228.00 L 360.00 223.00 L 348.00 219.00 L 341.00 219.00 L 335.00 217.00 L 327.00 217.00 L 314.00 212.00 L 307.00 211.00 L 302.00 207.00 L 301.00 204.00 L 307.00 198.00 L 309.00 193.00 L 309.00 190.00 L 314.00 185.00 L 316.00 180.00 L 318.00 178.00 L 319.00 174.00 L 321.00 173.00 L 322.00 174.00 L 329.00 175.00 L 332.00 174.00 L 334.00 170.00 L 332.00 166.00 L 326.00 164.00 L 322.00 164.00 L 319.00 162.00 L 319.00 155.00 L 317.00 151.00 L 316.00 135.00 L 314.00 131.00 L 314.00 123.00 L 313.00 121.00 L 314.00 120.00 L 314.00 116.00 L 316.00 112.00 L 319.00 109.00 L 322.00 98.00 L 320.00 92.00 L 318.00 90.00 L 315.00 89.00 L 293.00 88.00 L 292.00 87.00 L 283.00 87.00 L 282.00 86.00 L 281.00 87.00 L 274.00 87.00 L 273.00 88.00 L 268.00 88.00 L 267.00 89.00 L 266.00 88.00 L 266.00 79.00 L 267.00 78.00 L 266.00 75.00 Z M 318.00 376.00 L 325.00 382.00 L 326.00 384.00 L 325.00 389.00 L 313.00 413.00 L 311.00 421.00 L 309.00 423.00 L 308.00 427.00 L 306.00 429.00 L 303.00 437.00 L 300.00 440.00 L 293.00 441.00 L 292.00 438.00 L 297.00 425.00 L 298.00 419.00 L 294.00 410.00 L 290.00 406.00 L 285.00 403.00 L 285.00 400.00 L 299.00 391.00 L 302.00 388.00 L 305.00 387.00 Z M 385.00 303.00 L 384.00 304.00 L 384.00 312.00 L 383.00 314.00 L 378.00 319.00 L 378.00 321.00 L 376.00 324.00 L 365.00 334.00 L 361.00 335.00 L 355.00 340.00 L 353.00 340.00 L 348.00 343.00 L 330.00 343.00 L 329.00 342.00 L 329.00 337.00 L 330.00 336.00 L 338.00 335.00 L 339.00 334.00 L 344.00 334.00 L 353.00 330.00 L 363.00 320.00 L 375.00 305.00 L 379.00 303.00 L 383.00 299.00 Z"/>
  </g>
</svg>
