<?xml version="1.0" encoding="UTF-8"?>
<svg xmlns="http://www.w3.org/2000/svg" width="512" height="512" viewBox="0 0 512 512" role="img" aria-label="Clean bold minimalist dancing cat, frame 43 of 48">
<title>Clean bold minimalist dancing cat, frame 43 of 48</title>
<style>
  .outer, .face { fill:none; stroke:#111111; stroke-linecap:round; stroke-linejoin:round; }
  .outer { stroke-width:30.0; }
  .face { stroke-width:16.0; }
  .eye { fill:#111111; }
</style>
<g>
  <path class="outer" d="M 322.31 25.62 C 320.9 22.72 310.39 19.67 306.55 19.99 C 302.71 20.3 291.71 26.98 287.37 28.47 C 283.03 29.96 271.6 32.92 267.07 33.56 C 262.54 34.19 250.71 34.83 246.23 34.26 C 241.76 33.68 230.6 29.95 226.36 28.31 C 222.14 26.67 211.25 18.8 207.79 19.36 C 204.32 19.9 196.71 29.5 194.85 33.3 C 193 37.1 191.44 49.3 190.95 53.86 C 190.43 58.43 190.22 70.21 190.26 74.82 C 190.3 79.44 190.72 91.21 191.35 95.76 C 191.99 100.31 195.02 111.7 196.06 116.19 C 197.1 120.7 200.42 132.09 200.81 136.62 C 201.19 141.15 200.78 153.04 199.55 157.34 C 198.34 161.64 192.22 171.9 189.68 175.71 C 187.12 179.52 179.4 188.44 176.42 191.97 C 173.44 195.48 165.6 204.24 162.58 207.74 C 159.56 211.23 151.84 220.09 148.98 223.71 C 146.12 227.32 139.17 236.79 136.57 240.61 C 133.99 244.42 127.8 254.43 125.45 258.39 C 123.08 262.35 116.98 272.46 115.1 276.65 C 113.24 280.82 109.04 291.99 108.46 296.43 C 107.87 300.87 107.81 313.58 109.83 316.99 C 111.84 320.41 122.83 325.76 126.79 327.45 C 130.77 329.13 143.64 329.5 145.9 332.32 C 148.14 335.14 146.92 348.51 147.27 353.11 C 147.6 357.69 148.49 369.42 148.98 374.01 C 149.47 378.6 150.92 390.27 151.67 394.82 C 152.42 399.37 154.48 410.97 155.82 415.36 C 157.14 419.75 162.01 430.49 163.79 434.74 C 165.57 439 169.93 449.93 172 454.03 C 174.08 458.15 179.68 468.73 182.62 472.05 C 185.56 475.39 194.82 483.31 198.75 484.24 C 202.69 485.18 214.41 482.31 218.42 480.54 C 222.43 478.77 231.41 468.69 235.17 468.14 C 238.93 467.6 249.21 473.09 252.61 475.62 C 256.02 478.16 262.38 489.42 266.08 491.19 C 269.77 492.95 282.49 493.19 286.24 491.67 C 289.98 490.14 297.57 480.92 300.11 477.31 C 302.66 473.69 307.26 462.86 309.38 458.8 C 311.51 454.75 317.82 444.71 319.41 440.47 C 321.01 436.21 323.34 424.69 323.92 420.16 C 324.5 415.62 324.42 403.82 324.66 399.22 C 324.93 394.61 325.47 382.82 326.22 378.29 C 326.96 373.77 329.31 361.76 331.43 358.11 C 333.54 354.45 341.65 346.26 345.46 345.08 C 349.27 343.9 361.73 348.19 366.04 347.4 C 370.35 346.6 380.96 340.51 384.63 337.88 C 388.31 335.24 397.35 327.23 399.46 323.41 C 401.57 319.59 403.48 307.66 403.83 303.12 C 404.19 298.59 403.06 286.79 402.63 282.2 C 402.22 277.61 400.81 265.93 400.03 261.38 C 399.26 256.85 397.29 245.04 395.58 240.91 C 393.86 236.78 387.55 227.04 384.44 223.82 C 381.34 220.6 371.01 214.45 367.36 211.65 C 363.69 208.85 354.54 201.49 351.17 198.35 C 347.8 195.21 339.83 186.55 336.68 183.18 C 333.53 179.8 325.35 171.3 322.57 167.65 C 319.78 164.02 312.62 154.27 311.41 150.07 C 310.21 145.86 311.06 133.96 311.62 129.44 C 312.16 124.93 315.61 113.55 316.42 109.03 C 317.22 104.5 318.74 92.87 318.96 88.28 C 319.16 83.69 318.31 71.93 318.36 67.31 C 318.4 62.71 318.92 50.94 319.36 46.36 C 319.79 41.77 323.72 28.53 322.31 25.62 Z"/>
  <path class="face" d="M 248.94 133.09 Q 253.5 137.98 258.06 133.09 M 253.5 137.98 L 253.5 144.49 M 253.5 144.49 Q 247.21 149.92 241.24 146.23 M 253.5 144.49 Q 259.8 149.92 265.77 146.23"/>
  <circle class="eye" cx="228.32" cy="105.74" r="8.0"/>
  <circle class="eye" cx="278.68" cy="105.74" r="8.0"/>
</g>
</svg>
