<?xml version="1.0" encoding="UTF-8"?>
<svg xmlns="http://www.w3.org/2000/svg" width="512" height="512" viewBox="0 0 512 512" role="img" aria-label="Clean bold minimalist dancing cat, frame 42 of 48">
<title>Clean bold minimalist dancing cat, frame 42 of 48</title>
<style>
  .outer, .face { fill:none; stroke:#111111; stroke-linecap:round; stroke-linejoin:round; }
  .outer { stroke-width:30.0; }
  .face { stroke-width:16.0; }
  .eye { fill:#111111; }
</style>
<g>
  <path class="outer" d="M 320.03 25.92 C 318.31 23.39 305.95 23.08 301.8 23.67 C 297.65 24.27 286.7 30.04 282.29 31.31 C 277.88 32.58 266.29 34.86 261.74 35.21 C 257.17 35.57 245.3 35.39 240.86 34.5 C 236.41 33.61 225.56 28.57 221.34 27.15 C 217.1 25.72 205.68 20.32 202.4 21.57 C 199.12 22.82 193.12 34.37 191.51 38.5 C 189.9 42.63 188.27 54.54 187.76 59.1 C 187.25 63.68 186.85 75.44 186.88 80.05 C 186.92 84.66 187.43 96.44 188.1 100.99 C 188.75 105.53 191.86 116.91 192.9 121.4 C 193.93 125.9 197.12 137.33 197.52 141.86 C 197.9 146.39 197.47 158.24 196.39 162.62 C 195.31 166.99 189.92 177.6 187.73 181.64 C 185.53 185.68 178.92 195.43 176.45 199.33 C 174 203.24 167.78 213.21 165.34 217.14 C 162.9 221.05 156.7 231.03 154.25 234.94 C 151.81 238.85 145.49 248.77 143.07 252.69 C 140.65 256.62 134.64 266.71 132.21 270.65 C 129.79 274.57 123.39 284.43 121.02 288.38 C 118.65 292.34 112.43 302.4 110.71 306.62 C 109 310.84 104.87 322.69 105.43 326.77 C 106 330.85 112.45 341.51 115.84 343.7 C 119.23 345.88 132.15 345.1 136.26 346.64 C 140.37 348.17 150.31 354.4 153.15 357.69 C 156 360.97 160.5 372.22 162.15 376.5 C 163.81 380.77 167 392.13 168.22 396.58 C 169.45 401.03 171.94 412.52 173.26 416.94 C 174.57 421.35 178.67 432.38 180.19 436.74 C 181.7 441.09 185.36 452.27 187.07 456.55 C 188.76 460.84 193.16 472 195.64 475.68 C 198.11 479.36 205.86 488.63 209.62 490.04 C 213.36 491.44 225.68 490.02 229.73 488.46 C 233.8 486.92 242.57 477.13 246.54 475.96 C 250.49 474.78 261.74 476.27 265.71 477.78 C 269.69 479.3 278.59 488.76 282.66 489.74 C 286.72 490.72 298.83 488.61 302.66 486.71 C 306.49 484.8 314.79 476.07 317.47 472.45 C 320.16 468.85 325.05 457.99 327.04 453.83 C 329.02 449.68 334.11 439.07 335.46 434.71 C 336.81 430.34 338.83 418.72 339.25 414.15 C 339.69 409.58 339.39 397.79 339.38 393.18 C 339.38 388.56 339.19 376.82 339.2 372.2 C 339.21 367.6 338.65 355.65 339.48 351.28 C 340.31 346.92 343.72 334.57 346.69 332.55 C 349.68 330.53 362.14 332.71 366.62 332.88 C 371.1 333.04 383.19 334.78 387.44 333.99 C 391.69 333.2 403.17 328.91 405.22 325.73 C 407.27 322.54 406.6 309.51 406.1 305 C 405.59 300.51 402.06 289.18 400.63 284.8 C 399.19 280.43 394.86 269.48 393.06 265.24 C 391.25 261 386.67 250.05 384.22 246.22 C 381.78 242.38 373.99 233.67 370.82 230.37 C 367.64 227.06 358.58 219.47 355.33 216.21 C 352.08 212.94 344.28 204.14 341.26 200.66 C 338.24 197.17 330.82 188.07 327.88 184.51 C 324.94 180.95 317.03 172.16 314.5 168.35 C 311.98 164.55 305.71 154.22 304.93 149.93 C 304.14 145.65 306.45 133.86 307.38 129.39 C 308.3 124.92 312.41 113.78 313.4 109.29 C 314.39 104.81 316.07 93.21 316.38 88.63 C 316.69 84.06 316.14 72.27 316.25 67.66 C 316.35 63.05 316.95 51.31 317.36 46.71 C 317.79 42.12 321.74 28.45 320.03 25.92 Z"/>
  <path class="face" d="M 246.41 134.11 Q 250.97 139 255.53 134.11 M 250.97 139 L 250.97 145.52 M 250.97 145.52 Q 244.67 150.95 238.7 147.26 M 250.97 145.52 Q 257.27 150.95 263.25 147.26"/>
  <circle class="eye" cx="225.77" cy="106.74" r="8.0"/>
  <circle class="eye" cx="276.17" cy="106.74" r="8.0"/>
</g>
</svg>
