<?xml version="1.0" encoding="UTF-8"?>
<svg xmlns="http://www.w3.org/2000/svg" width="512" height="512" viewBox="0 0 512 512" role="img" aria-label="Clean bold minimalist dancing cat, frame 4 of 48">
<title>Clean bold minimalist dancing cat, frame 4 of 48</title>
<style>
  .outer, .face { fill:none; stroke:#111111; stroke-linecap:round; stroke-linejoin:round; }
  .outer { stroke-width:30.0; }
  .face { stroke-width:16.0; }
  .eye { fill:#111111; }
</style>
<g>
  <path class="outer" d="M 321.48 29.71 C 319.49 27.02 306.84 24.99 302.69 25.24 C 298.55 25.48 288.08 30.85 283.83 31.9 C 279.58 32.97 268.41 34.55 264.03 34.86 C 259.65 35.17 248.35 35.33 244.02 34.74 C 239.69 34.15 228.88 30.77 224.66 29.54 C 220.45 28.32 209.23 22.79 205.69 23.61 C 202.15 24.41 194.32 33.26 192.51 36.89 C 190.71 40.52 189.85 52.28 189.33 56.66 C 188.82 61.04 188.06 72.25 187.86 76.66 C 187.65 81.06 187.17 92.31 187.51 96.69 C 187.83 101.06 189.87 112.12 190.86 116.41 C 191.83 120.7 195.48 131.39 196.39 135.68 C 197.29 139.97 199.56 151.2 199.09 155.42 C 198.62 159.63 194.23 170.23 192.09 174.01 C 189.95 177.78 182.49 186.33 179.66 189.7 C 176.83 193.07 169.11 201.26 166.32 204.67 C 163.52 208.08 156.67 216.99 154.25 220.66 C 151.82 224.34 146.18 234.08 144.28 238.04 C 142.37 242.01 138.39 252.53 136.94 256.68 C 135.5 260.85 132.45 271.67 131.15 275.88 C 129.84 280.09 126.46 290.81 125.06 294.98 C 123.67 299.16 119.53 309.58 118.5 313.82 C 117.46 318.08 114.88 329.59 115.65 333.64 C 116.41 337.7 122.57 347.56 125.44 350.68 C 128.33 353.81 138.38 359.41 141.86 362.05 C 145.35 364.7 154.67 371.35 157.14 374.77 C 159.62 378.18 163.43 388.86 164.34 393.07 C 165.25 397.29 164.96 408.71 165.39 413.09 C 165.83 417.48 167.15 428.68 168.31 432.89 C 169.47 437.09 173.69 447.6 175.93 451.31 C 178.17 455.04 185.31 464.03 188.64 466.73 C 191.98 469.43 202.17 474.29 206.23 475.87 C 210.29 477.45 221.31 479.98 225.59 481.08 C 229.87 482.16 240.74 485.27 245.07 485.81 C 249.41 486.34 260.61 485.64 264.98 485.93 C 269.36 486.24 280.43 488.47 284.79 488.48 C 289.14 488.48 300.78 487.63 304.6 486.01 C 308.41 484.4 317.88 477.36 319.52 473.82 C 321.16 470.27 318.95 458.13 319.5 453.82 C 320.05 449.5 323.25 438.76 324.52 434.56 C 325.78 430.35 330.1 419.86 330.98 415.59 C 331.86 411.32 332.7 400.1 332.48 395.74 C 332.25 391.39 329.99 380.3 328.94 376.02 C 327.89 371.76 324 361.18 322.93 356.91 C 321.84 352.64 319.43 341.63 319.15 337.27 C 318.88 332.93 319.01 321.31 320.43 317.38 C 321.86 313.45 329.23 304.74 332.18 301.55 C 335.13 298.35 343.87 291.15 347.26 288.34 C 350.65 285.52 359.34 278.35 363 275.93 C 366.65 273.5 377.04 268.91 380.52 266.31 C 384.02 263.72 392.98 255.92 394.7 252.3 C 396.41 248.66 396.92 237.36 396.13 233.29 C 395.35 229.22 390.05 218.84 387.55 215.31 C 385.04 211.78 376.65 204.15 373.34 201.26 C 370.02 198.37 360.99 191.67 357.44 189.05 C 353.89 186.45 344.57 180.15 341.04 177.5 C 337.53 174.86 328.42 168.12 325.38 165 C 322.34 161.89 314.91 153.16 313.43 149.23 C 311.96 145.31 311.73 133.68 311.95 129.33 C 312.18 124.96 314.75 113.96 315.44 109.6 C 316.13 105.25 317.71 94.14 318.21 89.75 C 318.72 85.37 319.74 74.18 320.02 69.78 C 320.31 65.38 320.65 54.16 320.81 49.75 C 320.98 45.34 323.48 32.41 321.48 29.71 Z"/>
  <path class="face" d="M 248.5 144.51 Q 253.2 149.55 257.9 144.51 M 253.2 149.55 L 253.2 156.27 M 253.2 156.27 Q 246.71 161.87 240.55 158.06 M 253.2 156.27 Q 259.7 161.87 265.85 158.06"/>
  <circle class="eye" cx="227.22" cy="116.22" r="8.0"/>
  <circle class="eye" cx="279.18" cy="116.22" r="8.0"/>
</g>
</svg>
