<?xml version="1.0" encoding="UTF-8"?>
<svg xmlns="http://www.w3.org/2000/svg" width="512" height="512" viewBox="0 0 512 512" role="img" aria-label="Clean bold minimalist dancing cat, frame 25 of 48">
<title>Clean bold minimalist dancing cat, frame 25 of 48</title>
<style>
  .outer, .face { fill:none; stroke:#111111; stroke-linecap:round; stroke-linejoin:round; }
  .outer { stroke-width:30.0; }
  .face { stroke-width:16.0; }
  .eye { fill:#111111; }
</style>
<g>
  <path class="outer" d="M 367.66 39.38 C 366.87 34.58 364.12 20.53 361.09 19.16 C 358.06 17.8 344.84 25.33 340.08 26.97 C 335.33 28.61 322.84 33.11 317.84 34.09 C 312.83 35.07 299.63 36.35 294.58 35.9 C 289.54 35.46 276.89 31.42 271.99 30.06 C 267.1 28.71 253.55 22.05 250.11 23.65 C 246.68 25.25 241.83 39.7 240.79 44.58 C 239.75 49.46 240.58 62.85 240.58 68.01 C 240.57 73.17 241.77 86.75 240.76 91.48 C 239.75 96.21 234.77 109.84 231.39 110.99 C 228.03 112.13 214.5 104.51 210.17 101.89 C 205.83 99.25 195.96 90.33 191.95 87.07 C 187.95 83.8 177.76 75.47 173.77 72.21 C 169.77 68.94 159.37 60.83 155.59 57.33 C 151.8 53.83 142.82 43.95 139.35 40.42 C 135.87 36.9 126.68 24.59 124.01 25.27 C 121.34 25.94 116.17 41.61 115.07 46.53 C 113.98 51.45 112.8 65.47 114.09 69.97 C 115.39 74.48 123.17 84.34 126.84 87.5 C 130.52 90.64 143.3 95.66 147.51 98.58 C 151.71 101.5 161.46 110.43 165.09 114.08 C 168.71 117.73 177.02 128 180.49 131.82 C 183.97 135.63 192.93 145.29 196.72 148.78 C 200.51 152.27 211.11 160.13 214.97 163.55 C 218.83 166.98 229.45 175.64 231.79 179.86 C 234.13 184.09 236.66 197.13 236.24 201.97 C 235.82 206.82 230.08 219.2 228.01 223.92 C 225.94 228.64 219.64 240.23 217.46 244.91 C 215.29 249.59 210.2 261.72 208.22 266.49 C 206.23 271.27 201.79 283.74 199.41 288.27 C 197.03 292.8 189.7 303.61 186.53 307.62 C 183.38 311.63 172.62 320.31 170.73 324.72 C 168.84 329.13 169.37 342.6 169.36 347.71 C 169.34 352.82 170.12 366.02 170.56 371.17 C 171 376.31 172.12 389.52 173.38 394.46 C 174.64 399.41 179.56 411.66 182.07 416.1 C 184.58 420.55 193.02 430.8 196.23 434.84 C 199.47 438.88 208.29 448.69 211.36 452.8 C 214.44 456.89 220.34 469.54 224.21 472.13 C 228.07 474.74 241.6 476.65 246.49 476.4 C 251.37 476.13 264.16 469.1 268.63 469.83 C 273.09 470.54 282.78 480.4 287.09 482.95 C 291.4 485.5 303.66 493.04 307.8 493 C 311.93 492.97 323.04 486.32 324.7 482.61 C 326.36 478.9 322.66 464.36 322.91 459.26 C 323.17 454.16 325.78 441.25 327.04 436.27 C 328.32 431.28 333.17 418.98 334.44 413.98 C 335.7 408.98 337.73 395.97 338.5 390.86 C 339.28 385.75 340.58 372.64 341.5 367.56 C 342.41 362.48 345.82 349.77 346.81 344.7 C 347.8 339.64 349.35 326.52 350.49 321.5 C 351.63 316.47 355.36 303.84 357.18 299.03 C 358.99 294.2 364.59 282.26 367.01 277.71 C 369.43 273.16 376.4 261.98 379.22 257.66 C 382.06 253.33 390.6 243 392.72 238.43 C 394.84 233.86 398.61 220.99 398.47 216.1 C 398.33 211.21 393.71 198.53 391.42 194.01 C 389.12 189.49 380.55 179.27 377.61 175.02 C 374.67 170.78 366.55 160.1 364.75 155.43 C 362.95 150.76 361.12 137.64 361.23 132.59 C 361.33 127.54 364.9 114.63 365.73 109.55 C 366.56 104.46 368.51 91.47 368.79 86.33 C 369.07 81.2 368.42 68.01 368.29 62.85 C 368.17 57.69 368.45 44.19 367.66 39.38 Z"/>
  <path class="face" d="M 285.2 138.43 Q 289.82 143.38 294.43 138.43 M 289.82 143.38 L 289.82 149.97 M 289.82 149.97 Q 283.44 155.46 277.4 151.73 M 289.82 149.97 Q 296.19 155.46 302.23 151.73"/>
  <circle class="eye" cx="264.32" cy="110.74" r="8.0"/>
  <circle class="eye" cx="315.31" cy="110.74" r="8.0"/>
</g>
</svg>
