<?xml version="1.0" encoding="UTF-8"?>
<svg xmlns="http://www.w3.org/2000/svg" width="512" height="512" viewBox="0 0 512 512" role="img" aria-label="Simple dancing cat line frame 4">
<title>Simple dancing cat line frame 4</title>
<style>
  .outer, .inner { fill: none; stroke: #111; stroke-linecap: round; stroke-linejoin: round; }
  .outer { stroke-width: 13; }
  .inner { stroke-width: 10; }
  .face { stroke-width: 8.5; }
  .eye { fill: #111; }
</style>
<g id="frame-05">
<path class="outer" d="M 212.9 47.6 L 203 63.3 L 194.7 103.1 L 198 142 L 206.3 171.9 L 173.1 218.3 L 171.5 230.7 L 191.4 253.9 L 198 268 L 212.9 339.3 L 227.8 365 L 231.1 384 L 227.8 421.3 L 231.1 451.2 L 227.8 467.7 L 232.8 476 L 246.9 479.3 L 261.8 476.9 L 275.9 459.5 L 297.4 468.6 L 315.7 471.1 L 324.8 463.6 L 327.3 445.4 L 351.3 437.1 L 362.1 427.1 L 367.9 401.4 L 362.9 339.3 L 334.7 256.4 L 336.4 243.2 L 354.6 220.8 L 356.3 210 L 301.6 155.3 L 313.2 115.5 L 311.5 90.7 L 318.2 52.5 L 310.7 49.2 L 285 60.8 L 257.7 63.3 L 232.8 59.2 Z"/>
<path class="inner face" d="M 209.6 70.8 Q 214.6 89 222.9 101.4"/>
<path class="inner face" d="M 300.8 70.8 Q 295.8 89 287.5 101.4"/>
<path class="inner face" d="M 251 157 L 255.2 161.1 L 259.3 157 M 255.2 161.1 L 255.2 166.9 M 255.2 166.9 Q 249.4 172.7 243.6 169.4 M 255.2 166.9 Q 261 172.7 266.8 169.4"/>
<circle class="eye" cx="232" cy="134.6" r="5.2"/>
<circle class="eye" cx="278.4" cy="134.6" r="5.2"/>
<path class="inner" d="M 192.2 223.3 C 218.7 231.6 241.1 246.5 264.3 268"/>
<path class="inner" d="M 319.8 220.8 C 296.6 230.7 275.9 244 253.5 258.9"/>
<path class="inner" d="M 280.9 477.7 C 279.2 469.4 279.2 459.5 281.7 450.3"/>
</g>
</svg>
