<?xml version="1.0" encoding="UTF-8"?>
<svg xmlns="http://www.w3.org/2000/svg" width="512" height="512" viewBox="0 0 512 512" role="img" aria-label="Clean bold minimalist dancing cat, frame 34 of 48">
<title>Clean bold minimalist dancing cat, frame 34 of 48</title>
<style>
  .outer, .face { fill:none; stroke:#111111; stroke-linecap:round; stroke-linejoin:round; }
  .outer { stroke-width:30.0; }
  .face { stroke-width:16.0; }
  .eye { fill:#111111; }
</style>
<g>
  <path class="outer" d="M 357.82 43.63 C 357.6 38.5 358.71 22.88 356.43 20.34 C 354.15 17.8 341.54 19.45 337.09 20.58 C 332.63 21.69 320.79 29.02 315.93 30.56 C 311.09 32.09 298.05 34.38 293.01 34.49 C 287.96 34.6 274.74 33.21 270.04 31.54 C 265.35 29.87 254.17 19.28 250.33 19.28 C 246.49 19.29 237.23 27.74 235.11 31.61 C 232.98 35.5 231.54 49.43 231.01 54.53 C 230.49 59.61 231.14 72.98 230.37 77.9 C 229.6 82.84 227 97.67 224.03 99.32 C 221.06 100.97 207.57 95.27 203.35 92.88 C 199.12 90.48 189.54 80.95 185.65 77.58 C 181.77 74.19 172.1 65.34 168.06 62.16 C 164.02 58.99 153.22 51.53 148.9 48.76 C 144.57 45.98 133.26 38.92 128.73 36.93 C 124.21 34.93 110.54 28.87 107.74 30.62 C 104.93 32.35 102.67 48.09 103.2 52.78 C 103.74 57.48 109.24 69.86 112.56 73.25 C 115.89 76.65 128.86 81.32 133.43 83.64 C 138.01 85.97 150.01 91.44 154.13 94.4 C 158.26 97.37 167.38 106.88 170.91 110.62 C 174.42 114.36 182.63 124.61 186.14 128.37 C 189.66 132.12 199.22 141.09 202.83 144.74 C 206.44 148.39 216.22 157.43 218.97 161.61 C 221.74 165.8 227.1 177.9 227.94 182.79 C 228.78 187.68 227.37 201 226.65 206.08 C 225.92 211.14 222.8 223.91 221.37 228.86 C 219.95 233.79 215.4 246.09 213.67 250.94 C 211.95 255.79 207.26 268.03 205.69 272.94 C 204.12 277.83 200.76 290.49 199.36 295.45 C 197.95 300.39 194.47 313.02 192.91 317.92 C 191.36 322.82 186.88 335.15 185.2 340.01 C 183.53 344.88 178.91 357.2 177.71 362.17 C 176.49 367.14 174.39 380.13 174.21 385.21 C 174.04 390.31 174.78 403.63 176.12 408.46 C 177.48 413.31 183.67 424.96 186.45 429.24 C 189.21 433.51 198.07 443.29 201.29 447.3 C 204.51 451.31 212.01 462.32 215.7 465.71 C 219.4 469.11 230.27 477.16 234.85 478.13 C 239.42 479.08 252.38 474.36 257.28 474.45 C 262.19 474.54 274.9 476.98 279.46 478.9 C 284.01 480.83 294.08 490.61 298.65 491.96 C 303.21 493.32 317.65 493.61 320.96 491.2 C 324.29 488.8 327.06 474.77 328.86 470.04 C 330.67 465.32 335.53 453.08 337.36 448.28 C 339.18 443.47 343.99 431.24 345.47 426.33 C 346.95 421.43 350.13 408.72 350.81 403.66 C 351.51 398.59 351.51 385.43 351.71 380.29 C 351.92 375.15 352.26 362.04 352.65 356.92 C 353.04 351.8 354.54 338.76 355.28 333.68 C 356.02 328.58 358.41 315.7 359.35 310.64 C 360.29 305.58 362.72 292.7 363.8 287.67 C 364.88 282.64 367.59 269.77 369.18 264.91 C 370.78 260.04 375.59 247.75 378.3 243.48 C 381.01 239.2 390.52 229.93 393.84 226.03 C 397.16 222.14 407.21 212.42 408.49 208.02 C 409.77 203.62 407.64 190.14 405.43 185.97 C 403.22 181.81 392.32 173.47 388.4 170.2 C 384.47 166.91 373.22 159.79 369.73 156.15 C 366.27 152.49 358.17 141.66 356.79 136.99 C 355.41 132.32 356.97 118.81 357.25 113.68 C 357.54 108.56 359.22 95.52 359.35 90.39 C 359.48 85.27 358.6 72.17 358.43 67.02 C 358.26 61.88 358.04 48.77 357.82 43.63 Z"/>
  <path class="face" d="M 279.61 134.54 Q 284.16 139.42 288.72 134.54 M 284.16 139.42 L 284.16 145.92 M 284.16 145.92 Q 277.87 151.34 271.91 147.66 M 284.16 145.92 Q 290.45 151.34 296.41 147.66"/>
  <circle class="eye" cx="259.01" cy="107.21" r="8.0"/>
  <circle class="eye" cx="309.32" cy="107.21" r="8.0"/>
</g>
</svg>
