<?xml version="1.0" encoding="UTF-8"?>
<svg xmlns="http://www.w3.org/2000/svg" width="512" height="512" viewBox="0 0 512 512" role="img" aria-label="Clean bold minimalist dancing cat, frame 47 of 48">
<title>Clean bold minimalist dancing cat, frame 47 of 48</title>
<style>
  .outer, .face { fill:none; stroke:#111111; stroke-linecap:round; stroke-linejoin:round; }
  .outer { stroke-width:30.0; }
  .face { stroke-width:16.0; }
  .eye { fill:#111111; }
</style>
<g>
  <path class="outer" d="M 298.36 39.52 C 297.76 35.11 294.55 21.88 291.68 20.56 C 288.81 19.23 276.59 26.02 272.25 27.49 C 267.91 28.95 256.71 32.98 252.2 33.86 C 247.68 34.73 235.82 35.45 231.21 35.41 C 226.6 35.36 214.61 34.74 210.27 33.44 C 205.93 32.16 195.72 24.19 191.73 23.67 C 187.74 23.16 176.56 26.01 173.96 28.79 C 171.37 31.57 169.07 44.42 168.17 48.94 C 167.27 53.46 166.14 65.29 165.79 69.9 C 165.44 74.53 164.8 86.36 164.97 90.97 C 165.14 95.59 166.62 107.32 167.37 111.89 C 168.12 116.47 171.37 127.98 171.73 132.53 C 172.1 137.08 172.15 149.11 170.68 153.24 C 169.22 157.38 161.64 166.92 158.39 170.11 C 155.15 173.29 144.96 179.58 141.15 182.23 C 137.34 184.86 127.23 191.13 123.75 194.13 C 120.27 197.14 111.69 205.67 109.51 209.56 C 107.34 213.46 103.96 225.14 103.95 229.56 C 103.94 233.99 107.5 245.67 109.45 249.77 C 111.39 253.88 118.71 263.32 121.63 266.89 C 124.56 270.47 132.98 278.81 136.06 282.29 C 139.13 285.77 146.5 295.01 149.55 298.52 C 152.59 302.01 161.27 310.34 163.73 314.12 C 166.21 317.9 171.14 328.5 171.99 332.88 C 172.83 337.25 171.76 349.32 171.46 353.95 C 171.16 358.57 169.76 370.32 169.3 374.94 C 168.84 379.55 167.59 391.32 167.34 395.95 C 167.07 400.58 166.67 412.42 166.95 417.03 C 167.23 421.64 168.71 433.41 169.84 437.89 C 170.97 442.35 175.45 453.36 177.24 457.63 C 179.04 461.91 183.59 473.06 186.22 476.72 C 188.85 480.39 197.28 489.52 201.15 490.94 C 205.02 492.36 217.46 491.33 221.38 489.65 C 225.32 487.95 232.94 477.21 236.87 475.64 C 240.79 474.1 252.7 474.57 257.02 475.5 C 261.35 476.44 272.15 484.19 276.18 484.15 C 280.21 484.11 289.89 477.53 293.61 475.08 C 297.32 472.63 306.97 465.33 309.91 461.86 C 312.85 458.4 318.41 447.82 320.31 443.62 C 322.21 439.42 326.2 428.23 327.2 423.73 C 328.21 419.24 329.43 407.39 329.43 402.78 C 329.44 398.17 327.91 386.42 327.26 381.83 C 326.59 377.25 324.1 365.66 323.37 361.09 C 322.63 356.51 320.8 344.8 320.57 340.2 C 320.34 335.6 320.07 323.52 321.29 319.22 C 322.51 314.94 328.33 303.84 331.66 301.19 C 334.98 298.53 347 295.76 351.51 295.12 C 356.01 294.47 367.98 295.53 372.61 295.37 C 377.22 295.22 389.65 295.45 393.51 293.74 C 397.37 292.01 406.41 283.51 407.68 279.7 C 408.93 275.91 406.77 263.26 404.97 259.24 C 403.18 255.23 394.76 246.26 391.37 243.17 C 387.97 240.09 377.96 233.72 374.09 231.19 C 370.21 228.66 359.96 222.72 356.14 220.11 C 352.31 217.48 342.95 210.26 339.34 207.34 C 335.74 204.43 326.85 196.63 323.38 193.55 C 319.9 190.47 311.05 182.62 307.79 179.33 C 304.54 176.03 296.16 167.47 293.81 163.59 C 291.47 159.7 287.1 148.46 286.53 144.01 C 285.96 139.56 287.85 127.69 288.59 123.13 C 289.33 118.57 292.49 107.13 293.31 102.56 C 294.14 98 295.73 86.28 296.16 81.66 C 296.57 77.05 296.94 65.22 297.19 60.59 C 297.43 55.95 298.97 43.91 298.36 39.52 Z"/>
  <path class="face" d="M 225.34 139.29 Q 229.96 144.24 234.57 139.29 M 229.96 144.24 L 229.96 150.83 M 229.96 150.83 Q 223.58 156.33 217.54 152.59 M 229.96 150.83 Q 236.33 156.33 242.37 152.59"/>
  <circle class="eye" cx="204.46" cy="111.60" r="8.0"/>
  <circle class="eye" cx="255.45" cy="111.60" r="8.0"/>
</g>
</svg>
