<?xml version="1.0" encoding="UTF-8"?>
<svg xmlns="http://www.w3.org/2000/svg" width="512" height="512" viewBox="0 0 512 512" role="img" aria-label="Clean bold minimalist dancing cat, frame 24 of 48">
<title>Clean bold minimalist dancing cat, frame 24 of 48</title>
<style>
  .outer, .face { fill:none; stroke:#111111; stroke-linecap:round; stroke-linejoin:round; }
  .outer { stroke-width:30.0; }
  .face { stroke-width:16.0; }
  .eye { fill:#111111; }
</style>
<g>
  <path class="outer" d="M 361.52 41.15 C 360.79 36.61 358.02 23.49 355.1 22.18 C 352.17 20.86 339.47 27.65 334.93 29.19 C 330.4 30.75 318.63 35.15 313.89 36.22 C 309.14 37.28 296.68 38.94 291.83 38.84 C 286.99 38.74 274.58 36.57 269.88 35.29 C 265.19 34.02 253.13 26.75 249.18 27.23 C 245.22 27.7 235.95 35.76 233.96 39.54 C 231.98 43.32 231.43 56.67 231.14 61.55 C 230.85 66.43 231.78 79.04 231.35 83.87 C 230.92 88.7 229.86 102.9 227.29 105.47 C 224.72 108.05 212.17 108.42 207.96 107.33 C 203.77 106.22 193.2 98.16 189.08 95.49 C 184.98 92.81 174.66 85.76 170.6 83 C 166.54 80.24 155.96 73.51 152.19 70.4 C 148.42 67.3 139.65 55.75 136.34 54.78 C 133.03 53.82 124.07 58.43 122.16 61.59 C 120.25 64.75 119 78.71 118.95 83.5 C 118.89 88.3 119.44 101.29 121.66 105.16 C 123.88 109.04 135.25 115.7 139.09 118.69 C 142.94 121.7 153.08 129.05 156.61 132.41 C 160.13 135.78 168.07 145.49 171.16 149.3 C 174.24 153.11 181.52 163.31 184.65 167.08 C 187.79 170.84 196.22 180.06 199.68 183.55 C 203.12 187.03 212.73 195.15 215.99 198.76 C 219.26 202.37 227.9 212.04 229.4 216.37 C 230.91 220.7 230.46 233.45 229.67 238.16 C 228.89 242.87 224.06 254.62 222.26 259.17 C 220.45 263.74 215.1 275.05 213.28 279.6 C 211.45 284.16 207.29 295.94 205.65 300.57 C 204.02 305.19 200.43 317.25 198.39 321.67 C 196.36 326.07 189.79 336.63 187.16 340.7 C 184.54 344.77 175.63 354.31 174.53 358.68 C 173.46 363.04 176.5 375.64 177.29 380.44 C 178.09 385.24 180.53 397.56 181.73 402.31 C 182.93 407.05 186.15 419.25 188.25 423.6 C 190.34 427.95 197.7 438.11 200.79 441.87 C 203.88 445.65 213 454.31 216.35 457.86 C 219.71 461.43 227.6 471.32 231.28 474.25 C 234.96 477.2 245.45 484.1 249.8 484.61 C 254.15 485.13 266.24 479.6 270.83 478.89 C 275.41 478.17 287.17 476.93 291.48 478.13 C 295.78 479.35 305.75 489.2 309.93 489.89 C 314.13 490.58 327.29 487.44 329.55 484.45 C 331.8 481.46 330.28 467.56 330.42 462.74 C 330.55 457.91 330.2 445.37 330.8 440.55 C 331.41 435.71 334.93 423.62 335.85 418.81 C 336.78 414 338.72 401.67 339.24 396.79 C 339.77 391.92 340.15 379.39 340.66 374.52 C 341.17 369.64 343.1 357.32 343.83 352.47 C 344.57 347.63 346.47 335.27 347.36 330.46 C 348.26 325.64 350.52 313.32 351.95 308.65 C 353.38 303.98 358.21 292.4 360.34 287.99 C 362.47 283.58 368.8 272.8 371.28 268.56 C 373.75 264.31 380.45 253.73 382.8 249.45 C 385.16 245.16 391.75 234.18 392.69 229.58 C 393.61 224.98 392.71 212.13 391.21 207.67 C 389.73 203.21 382 193.02 379.14 189.06 C 376.27 185.09 367.83 175.73 365.19 171.64 C 362.55 167.56 356.26 156.5 355.17 151.9 C 354.09 147.29 354.77 134.59 355.29 129.76 C 355.81 124.92 359.16 112.77 359.88 107.92 C 360.6 103.09 361.65 90.65 361.86 85.76 C 362.06 80.87 361.73 68.37 361.7 63.45 C 361.66 58.55 362.24 45.69 361.52 41.15 Z"/>
  <path class="face" d="M 278.39 143.68 Q 283.12 148.74 287.84 143.68 M 283.12 148.74 L 283.12 155.48 M 283.12 155.48 Q 276.59 161.11 270.41 157.28 M 283.12 155.48 Q 289.64 161.11 295.82 157.28"/>
  <circle class="eye" cx="257.03" cy="115.33" r="8.0"/>
  <circle class="eye" cx="309.20" cy="115.33" r="8.0"/>
</g>
</svg>
