<?xml version="1.0" encoding="UTF-8"?>
<svg xmlns="http://www.w3.org/2000/svg" width="512" height="512" viewBox="0 0 512 512" role="img" aria-label="Clean bold minimalist dancing cat, frame 18 of 48">
<title>Clean bold minimalist dancing cat, frame 18 of 48</title>
<style>
  .outer, .face { fill:none; stroke:#111111; stroke-linecap:round; stroke-linejoin:round; }
  .outer { stroke-width:30.0; }
  .face { stroke-width:16.0; }
  .eye { fill:#111111; }
</style>
<g>
  <path class="outer" d="M 295.87 24.66 C 294.45 22.12 283.97 20.29 280.27 20.62 C 276.57 20.93 266.31 26.42 262.23 27.54 C 258.14 28.65 247.38 30.35 243.16 30.71 C 238.93 31.07 228.07 31.16 223.85 30.79 C 219.64 30.42 208.84 28.64 204.84 27.34 C 200.83 26.05 191.19 19.33 187.46 19.02 C 183.72 18.7 173.47 21.88 170.92 24.46 C 168.38 27.05 165.34 38.44 164.33 42.54 C 163.32 46.63 162.08 57.48 161.79 61.72 C 161.49 65.96 161.46 76.81 161.63 81.06 C 161.8 85.31 162.65 96.13 163.3 100.33 C 163.96 104.52 166.65 115.04 167.63 119.18 C 168.61 123.32 171.71 133.8 172.19 137.98 C 172.68 142.17 172.8 153.09 172.09 157.21 C 171.38 161.32 167.24 171.44 165.69 175.4 C 164.15 179.36 159.26 189.13 158.04 193.17 C 156.8 197.2 154.34 207.96 154.53 212.07 C 154.71 216.18 158.3 226.55 159.68 230.56 C 161.07 234.56 165.67 244.43 167.11 248.43 C 168.53 252.44 171.69 262.81 172.71 266.94 C 173.73 271.07 175.69 281.74 176.4 285.94 C 177.12 290.14 178.54 300.89 179.2 305.09 C 179.84 309.31 181.42 320.04 182.27 324.2 C 183.13 328.37 185.78 338.89 186.98 342.96 C 188.19 347.04 192.07 357.18 193.26 361.28 C 194.43 365.36 196.98 375.9 197.69 380.08 C 198.4 384.27 199.47 395.08 199.71 399.33 C 199.93 403.58 199.65 414.43 199.72 418.68 C 199.78 422.93 200 433.78 200.3 438.02 C 200.6 442.26 202.07 453.01 202.4 457.25 C 202.74 461.5 202.13 472.78 203.32 476.58 C 204.52 480.39 210.1 490.14 213.27 491.85 C 216.43 493.55 228.16 493.12 232.07 492.12 C 235.98 491.1 245.08 484.39 248.84 482.67 C 252.6 480.95 262.25 476.65 266.23 476.47 C 270.21 476.3 280.89 480.75 285.01 481.02 C 289.14 481.27 300.54 480.83 303.74 478.84 C 306.95 476.85 311.57 466.19 314.16 462.91 C 316.74 459.65 324 451.77 327.2 449.07 C 330.41 446.37 340.37 441.32 343.33 438.42 C 346.3 435.53 352.6 426.59 354.15 422.77 C 355.71 418.96 357.13 407.98 357.41 403.76 C 357.7 399.54 356.99 388.68 356.79 384.43 C 356.6 380.18 355.8 369.36 355.63 365.11 C 355.47 360.86 355.64 349.98 355.27 345.76 C 354.89 341.54 353.32 330.8 352.18 326.74 C 351.05 322.67 346.64 312.7 344.94 308.8 C 343.24 304.89 338.54 295.13 336.77 291.25 C 335 287.38 330.45 277.54 328.85 273.59 C 327.26 269.65 323.37 259.5 322.31 255.39 C 321.26 251.3 318.93 240.41 319.31 236.34 C 319.67 232.27 323.7 222.05 325.69 218.38 C 327.67 214.7 335.15 206.49 337.31 202.91 C 339.47 199.34 345.17 189.68 345.31 185.89 C 345.46 182.1 341.08 171.55 338.62 168.4 C 336.18 165.26 326.7 159.33 323.02 157.28 C 319.34 155.23 308.87 151.79 305.19 149.76 C 301.51 147.73 291.75 142.03 289.52 138.82 C 287.28 135.61 284.98 124.72 284.85 120.63 C 284.72 116.53 287.65 105.79 288.32 101.59 C 288.99 97.4 290.61 86.69 290.94 82.45 C 291.29 78.21 291.14 67.35 291.39 63.1 C 291.63 58.86 292.68 48.06 293.17 43.83 C 293.66 39.61 297.28 27.22 295.87 24.66 Z"/>
  <path class="face" d="M 223.3 136.57 Q 227.95 141.54 232.59 136.57 M 227.95 141.54 L 227.95 148.18 M 227.95 148.18 Q 221.53 153.71 215.45 149.95 M 227.95 148.18 Q 234.36 153.71 240.45 149.95"/>
  <circle class="eye" cx="202.28" cy="108.62" r="8.0"/>
  <circle class="eye" cx="253.61" cy="108.62" r="8.0"/>
</g>
</svg>
