<?xml version="1.0" encoding="UTF-8"?>
<svg xmlns="http://www.w3.org/2000/svg" width="512" height="512" viewBox="0 0 512 512" role="img" aria-label="Clean bold minimalist dancing cat, frame 38 of 48">
<title>Clean bold minimalist dancing cat, frame 38 of 48</title>
<style>
  .outer, .face { fill:none; stroke:#111111; stroke-linecap:round; stroke-linejoin:round; }
  .outer { stroke-width:30.0; }
  .face { stroke-width:16.0; }
  .eye { fill:#111111; }
</style>
<g>
  <path class="outer" d="M 324.53 36.62 C 322.48 34.07 309.19 33.72 304.81 33.91 C 300.44 34.09 289.21 37.42 284.79 38.26 C 280.36 39.1 269.03 41.35 264.57 41.54 C 260.1 41.72 248.54 40.9 244.2 39.93 C 239.86 38.96 229.23 34.4 225.13 32.71 C 221.03 31.01 210.14 23.63 206.86 24.53 C 203.59 25.44 197.14 36.89 195.33 40.87 C 193.52 44.85 191.19 56.32 190.37 60.75 C 189.57 65.18 188.28 76.62 187.99 81.11 C 187.7 85.62 187.71 97.11 187.71 101.63 C 187.71 106.14 188.11 117.63 187.97 122.14 C 187.84 126.64 187.75 138.44 186.47 142.59 C 185.2 146.74 179.12 156.37 176.37 159.82 C 173.61 163.26 164.5 170.6 161.45 173.9 C 158.4 177.21 151.11 186.14 148.6 189.86 C 146.1 193.57 140.34 203.55 138.65 207.69 C 136.98 211.82 134.36 223.09 133.35 227.48 C 132.34 231.87 130.28 243.19 129.47 247.63 C 128.65 252.07 127.08 263.47 125.97 267.83 C 124.86 272.19 120.58 282.91 119.38 287.25 C 118.2 291.58 114.77 303.01 115.19 307.2 C 115.6 311.39 120.39 322.34 123.23 325.36 C 126.08 328.4 136.87 333.97 141.05 334.73 C 145.23 335.49 156.78 332.69 161.23 332.27 C 165.68 331.85 177.55 329.71 181.48 330.93 C 185.43 332.16 194.37 339.93 197.04 343.33 C 199.71 346.73 204.33 357.61 205.73 361.85 C 207.13 366.09 209.16 377.43 209.73 381.89 C 210.3 386.35 210.68 397.86 210.89 402.37 C 211.09 406.88 211.35 418.36 211.6 422.87 C 211.86 427.37 213.05 438.81 213.22 443.32 C 213.38 447.82 211.88 459.79 213.1 463.83 C 214.31 467.85 220.89 478.07 224.27 479.95 C 227.66 481.85 239.57 480.8 243.87 480.99 C 248.18 481.19 259.12 481 263.42 481.71 C 267.73 482.44 278.69 487.34 283 487.53 C 287.33 487.73 298.51 484.9 302.71 483.47 C 306.91 482.05 317.47 477.01 321.2 474.58 C 324.91 472.14 333.97 464.93 336.53 461.41 C 339.09 457.87 342.81 446.71 344.44 442.51 C 346.08 438.31 350.18 427.54 351.43 423.23 C 352.67 418.9 355.61 407.66 355.79 403.24 C 355.97 398.82 353.74 387.48 353.09 383.04 C 352.43 378.59 349.34 366.94 349.82 362.82 C 350.29 358.72 354.51 346.86 357.38 345.66 C 360.26 344.44 371.94 350.1 375.88 351.8 C 379.83 353.51 390.9 362.12 393.2 361.14 C 395.51 360.16 397.18 347.01 396.79 342.9 C 396.4 338.79 391.65 327.76 389.67 323.74 C 387.69 319.72 381.29 310.11 378.81 306.34 C 376.33 302.58 369.6 293.26 367.11 289.49 C 364.63 285.73 358.26 276.12 356.2 272.13 C 354.15 268.15 349.67 257.53 348.4 253.24 C 347.13 248.94 345.44 237.52 344.62 233.09 C 343.8 228.65 342.32 217.18 340.98 212.92 C 339.64 208.66 334.68 198.28 332.46 194.38 C 330.23 190.49 322.85 181.46 320.73 177.56 C 318.61 173.64 313.86 163.16 313.19 158.86 C 312.53 154.55 314.05 142.89 314.71 138.44 C 315.36 133.99 318.43 122.87 319.19 118.44 C 319.94 114 321.21 102.59 321.6 98.1 C 321.98 93.6 322.49 82.12 322.69 77.61 C 322.89 73.11 323.24 61.62 323.44 57.11 C 323.64 52.6 326.57 39.17 324.53 36.62 Z"/>
  <path class="face" d="M 247.46 143.58 Q 252.15 148.6 256.83 143.58 M 252.15 148.6 L 252.15 155.29 M 252.15 155.29 Q 245.68 160.86 239.55 157.07 M 252.15 155.29 Q 258.62 160.86 264.75 157.07"/>
  <circle class="eye" cx="226.28" cy="115.48" r="8.0"/>
  <circle class="eye" cx="278.02" cy="115.48" r="8.0"/>
</g>
</svg>
